<svg width="56" height="56" viewBox="0 0 56 56" fill="none" xmlns="http://www.w3.org/2000/svg">
<path d="M28 0C12.6 0 0 12.6 0 28C0 43.4 12.6 56 28 56C43.4 56 56 43.4 56 28C56 12.6 43.4 0 28 0ZM37.1 30.45H30.45V37.1C30.45 38.5 29.4 39.55 28 39.55C26.6 39.55 25.55 38.5 25.55 37.1V30.45H18.9C17.5 30.45 16.45 29.4 16.45 28C16.45 26.6 17.5 25.55 18.9 25.55H25.55V18.9C25.55 17.5 26.6 16.45 28 16.45C29.4 16.45 30.45 17.5 30.45 18.9V25.55H37.1C38.5 25.55 39.55 26.6 39.55 28C39.55 29.4 38.5 30.45 37.1 30.45Z" fill="#949198"/>
</svg>
