<svg width="48" height="48" viewBox="0 0 48 48" fill="none" xmlns="http://www.w3.org/2000/svg">
<path fill-rule="evenodd" clip-rule="evenodd" d="M11.0976 0.670714L11.1598 0.674724C12.3822 0.776042 13.4439 1.38352 14.4131 2.33047C16.2549 4.12931 20.2098 9.37858 20.5084 10.8071C20.8389 12.4008 20.4856 13.4359 19.4322 15.2669L19.1769 15.7182C18.6936 16.601 18.6197 16.9655 18.7693 17.3829C21.0692 23.0114 24.9937 26.9354 30.5579 29.208C31.0849 29.3988 31.4828 29.2894 32.5963 28.6506L33.1774 28.3219C34.743 27.4632 35.7353 27.1918 37.1985 27.4965C38.6221 27.7948 43.8743 31.7523 45.6704 33.5918C46.6161 34.56 47.2249 35.6236 47.3309 36.9266C47.4427 40.0934 43.5785 44.5524 41.2212 45.8931C38.5405 47.8107 35.1386 47.7789 31.3242 46.0036C21.3495 41.8529 6.09163 26.6925 2.02552 16.7301L1.78212 16.1728C0.23816 12.4827 0.271615 9.29456 2.04092 6.89104C3.65534 4.21747 8.0081 0.527827 11.0976 0.670714ZM10.9091 4.08262L10.7034 4.09317C9.11765 4.30384 5.93769 7.04152 4.87869 8.78282L4.69574 9.05506C3.78345 10.5415 3.88918 12.5827 5.15932 15.3777L5.40206 15.9459C9.49829 25.1392 23.681 39.1251 32.6995 42.8794L33.1962 43.1003C35.8054 44.2063 37.7806 44.1571 39.3798 43.0232L39.498 42.9472C39.9928 42.6034 41.1339 41.5665 42.0129 40.5523C43.2474 39.1278 43.9467 37.8226 43.9241 37.1278C43.8994 36.8305 43.6701 36.4299 43.2283 35.9775C41.8931 34.6101 37.0372 30.9512 36.5005 30.8388C35.993 30.7331 35.5765 30.8751 34.4374 31.5304L33.8644 31.8523C32.1863 32.7572 31.0033 33.0004 29.3319 32.3938C22.8545 29.75 18.256 25.1522 15.5843 18.6096C14.9514 16.8603 15.2921 15.6226 16.3926 13.7045L16.6548 13.2432C17.1548 12.3405 17.2606 11.9575 17.1664 11.5032C17.0536 10.9635 13.3971 6.11038 12.0278 4.77308C11.5744 4.33008 11.176 4.10213 10.8778 4.07741L10.9091 4.08262Z" fill="#890000"/>
</svg>
