<svg width="48" height="48" viewBox="0 0 48 48" fill="none" xmlns="http://www.w3.org/2000/svg">
<path fill-rule="evenodd" clip-rule="evenodd" d="M24.1352 0.667243C15.9414 0.634315 8.33289 4.88303 4.07468 11.8669C-0.184082 18.8517 -0.469981 27.5529 3.32115 34.8014L3.75007 35.6375C3.91404 35.9449 3.94567 36.2764 3.85066 36.5829C3.23806 38.2018 2.69981 39.95 2.27032 41.7263L2.22472 42.1089C2.22472 43.8948 3.17766 45.122 5.06894 45.08L5.38387 45.0421C7.10191 44.6627 8.79387 44.1739 10.4494 43.5787C10.6688 43.5232 11.0283 43.5448 11.3526 43.6775L12.9452 44.5787C12.9488 44.5898 12.9515 44.5982 12.9681 44.6079L13.075 44.6453C21.6502 49.1542 32.1228 47.9103 39.3993 41.5184C46.6769 35.1256 49.2465 24.9103 45.8576 15.8424C42.469 6.77541 33.8268 0.738469 24.1352 0.667243ZM23.4574 3.93097L24.1128 3.92071C32.4538 3.98415 39.8919 9.18 42.8078 16.982C45.7233 24.7832 43.5126 33.5715 37.2506 39.0722L36.7368 39.5086C30.6795 44.482 22.2691 45.4844 15.2096 42.0757L14.5382 41.7393L14.567 41.7431L14.5245 41.7315L13.5391 41.166C13.1843 40.9655 12.9028 40.8136 12.676 40.7043C11.5953 40.2588 10.4982 40.1931 9.46641 40.4773L8.48963 40.8128C7.84408 41.026 7.20864 41.2186 6.57633 41.3928L5.65453 41.6336L5.43493 42.4913C5.83308 40.8447 6.33205 39.2241 6.92903 37.6385C7.31319 36.4092 7.19572 35.1778 6.63424 34.1271L6.21208 33.3037C2.94459 27.0563 3.19054 19.571 6.85453 13.5617C10.4045 7.73939 16.6615 4.12541 23.4574 3.93097ZM11.1074 24.0005C11.1074 22.53 12.3003 21.339 13.7705 21.339C15.2408 21.339 16.4337 22.53 16.4337 24.0005C16.4337 25.471 15.2408 26.662 13.7705 26.662C12.3003 26.662 11.1074 25.471 11.1074 24.0005ZM21.4601 24.0005C21.4601 22.53 22.653 21.339 24.1232 21.339C25.5935 21.339 26.7864 22.53 26.7864 24.0005C26.7864 25.471 25.5935 26.662 24.1232 26.662C22.653 26.662 21.4601 25.471 21.4601 24.0005ZM34.476 21.339C33.0057 21.339 31.8128 22.53 31.8128 24.0005C31.8128 25.471 33.0057 26.662 34.476 26.662C35.9462 26.662 37.1391 25.471 37.1391 24.0005C37.1391 22.53 35.9462 21.339 34.476 21.339Z" fill="#890000"/>
</svg>
