<svg width="48" height="48" viewBox="0 0 48 42" fill="none" xmlns="http://www.w3.org/2000/svg">
<path fill-rule="evenodd" clip-rule="evenodd" d="M34.559 0.000110841L13.3977 0C6.00214 0 0.666626 5.97686 0.666626 13.6709V28.3291C0.666626 36.0231 6.00214 42 13.3977 42H34.5392C38.0915 41.9602 41.4538 40.4648 43.8626 37.862C46.2715 35.2591 47.5167 31.776 47.3083 28.2239L47.3114 13.6709C47.5167 10.224 46.2715 6.74088 43.8626 4.13803C41.4538 1.53518 38.0915 0.0397852 34.559 0.000110841ZM13.3977 3.56633L34.5195 3.56622C37.0836 3.59502 39.5242 4.68047 41.2727 6.56979C43.0212 8.45911 43.9251 10.9874 43.7738 13.5657L43.7707 28.3291C43.9251 31.0126 43.0212 33.5409 41.2727 35.4302C39.5242 37.3195 37.0836 38.405 34.5195 38.4338L13.3977 38.4337C8.04647 38.4337 4.20732 34.133 4.20732 28.3291V13.6709C4.20732 7.86696 8.04647 3.56633 13.3977 3.56633ZM38.056 13.1562C37.4451 12.3873 36.331 12.263 35.5676 12.8784L26.0026 20.5899L25.7285 20.7826C24.6007 21.4889 23.1198 21.4237 22.0395 20.5756L12.4046 12.8737L12.1878 12.7251C11.4405 12.2903 10.4699 12.4607 9.91738 13.162C9.30958 13.9334 9.43771 15.055 10.2036 15.6672L19.8507 23.3788L20.227 23.6543C22.6538 25.3071 25.8698 25.2157 28.1973 23.3884L37.7802 15.6626L37.9725 15.4829C38.5599 14.8461 38.6115 13.8551 38.056 13.1562Z" fill="#890000"/>
</svg>
