<svg width="40" height="40" viewBox="0 0 40 40" fill="none" xmlns="http://www.w3.org/2000/svg">
<rect x="0.5" y="0.5" width="39" height="39" rx="19.5" stroke="#949198"/>
<path d="M14.5776 23.4816C13.1628 24.324 9.45336 26.0441 11.7127 28.1966C12.8163 29.248 14.0455 30 15.5909 30H24.4091C25.9545 30 27.1837 29.248 28.2873 28.1966C30.5466 26.0441 26.8372 24.324 25.4224 23.4816C22.1048 21.5061 17.8952 21.5061 14.5776 23.4816Z" stroke="#949198" stroke-width="1.5" stroke-linecap="round" stroke-linejoin="round"/>
<path d="M24.5 14.5C24.5 16.9853 22.4853 19 20 19C17.5147 19 15.5 16.9853 15.5 14.5C15.5 12.0147 17.5147 10 20 10C22.4853 10 24.5 12.0147 24.5 14.5Z" stroke="#949198" stroke-width="1.5"/>
</svg>
