<svg width="48" height="48" viewBox="0 0 56 56" fill="none" xmlns="http://www.w3.org/2000/svg">
    <path fill-rule="evenodd" clip-rule="evenodd"
          d="M28 54.25C41.531 54.25 52.5 43.281 52.5 29.75C52.5 16.219 41.531 5.25 28 5.25C14.469 5.25 3.5 16.219 3.5 29.75C3.5 34.144 4.65674 38.2679 6.68233 41.8337L3.5 54.25L16.301 51.2817C19.7774 53.1745 23.7631 54.25 28 54.25ZM28 50.4808C39.4493 50.4808 48.7308 41.1993 48.7308 29.75C48.7308 18.3007 39.4493 9.01923 28 9.01923C16.5507 9.01923 7.26923 18.3007 7.26923 29.75C7.26923 34.1706 8.65288 38.2681 11.0107 41.6329L9.15385 48.5962L16.2399 46.8246C19.5814 49.1305 23.633 50.4808 28 50.4808Z"
          fill="#BFC8D0"/>
    <path d="M49 28C49 39.598 39.598 49 28 49C23.5763 49 19.4721 47.6322 16.0871 45.2964L8.90909 47.0909L10.7901 40.0372C8.40162 36.6287 7 32.478 7 28C7 16.402 16.402 7 28 7C39.598 7 49 16.402 49 28Z"
          fill="url(#paint0_linear_1_413)"/>
    <path fill-rule="evenodd" clip-rule="evenodd"
          d="M28 52.5C41.531 52.5 52.5 41.531 52.5 28C52.5 14.469 41.531 3.5 28 3.5C14.469 3.5 3.5 14.469 3.5 28C3.5 32.394 4.65674 36.5179 6.68233 40.0837L3.5 52.5L16.301 49.5317C19.7774 51.4245 23.7631 52.5 28 52.5ZM28 48.7308C39.4493 48.7308 48.7308 39.4493 48.7308 28C48.7308 16.5507 39.4493 7.26923 28 7.26923C16.5507 7.26923 7.26923 16.5507 7.26923 28C7.26923 32.4206 8.65288 36.5181 11.0107 39.8829L9.15385 46.8462L16.2399 45.0746C19.5814 47.3805 23.633 48.7308 28 48.7308Z"
          fill="white"/>
    <path d="M21.875 16.625C21.2925 15.455 20.3989 15.5586 19.4962 15.5586C17.8828 15.5586 15.3672 17.4911 15.3672 21.0877C15.3672 24.0352 16.666 27.2618 21.0427 32.0884C25.2666 36.7465 30.8164 39.1562 35.4238 39.0741C40.0313 38.9921 40.9792 35.0273 40.9792 33.6883C40.9792 33.0948 40.6109 32.7987 40.3572 32.7183C38.7871 31.9648 35.8913 30.5607 35.2324 30.297C34.5735 30.0332 34.2295 30.39 34.0156 30.5841C33.4181 31.1535 32.2337 32.8316 31.8281 33.2091C31.4226 33.5865 30.818 33.3955 30.5664 33.2528C29.6405 32.8813 27.1301 31.7646 25.1291 29.8248C22.6543 27.4259 22.5091 26.6005 22.0428 25.8658C21.6698 25.278 21.9435 24.9174 22.0801 24.7598C22.6133 24.1446 23.3496 23.1947 23.6797 22.7227C24.0099 22.2507 23.7478 21.534 23.5905 21.0877C22.9141 19.168 22.341 17.5611 21.875 16.625Z"
          fill="white"/>
    <defs>
        <linearGradient id="paint0_linear_1_413" x1="46.375" y1="12.25" x2="7" y2="49" gradientUnits="userSpaceOnUse">
            <stop stop-color="#5BD066"/>
            <stop offset="1" stop-color="#27B43E"/>
        </linearGradient>
    </defs>
</svg>
